# xmcd
#
# Track frame offsets:
#	150
#	13641
#	30053
#	47544
#	63986
#	77700
#	91289
#	108040
#	124700
#	143328
#	158634
#	180462
#	198389
#	212845
#	230070
#	245527
#	257978
#
# Disc length: 3664
#
# Revision: 1
# Processed by: cddbd v1.5.1PL0 Copyright (c) Steve Scherf et al.
# Submitted via: VisiTrax 2.9.5.180 - For more info visit www.synapsa.com
# Normalized: r0:DSETVAR1
#
DISCID=d10e4e11
DTITLE=Various Artist - CDX 231 January 2000
DYEAR=2000
DGENRE=
TTITLE0=Chad Austin - All my dreams
TTITLE1=Tamara Walker - Askin' too much
TTITLE2=Clint Black/Steve Wariner - Been there
TTITLE3=Paul Overstreet - Be mine
TTITLE4=Chris LeDoux - Country fair
TTITLE5=Willie Nelson/Waylon Jennings/Kris Kristofferson/Billy Joe Shaver - Honky tonk heroes (like me)
TTITLE6=Redmon and Vale - In the name of love
TTITLE7=Shane Minor - I think you're beautiful
TTITLE8=Vince Gill - Let's make sure we kiss goodbye
TTITLE9=Brad Paisley - Me neither
TTITLE10=Ty Herndin - No mercy
TTITLE11=Trisha Yearwood - Real live woman
TTITLE12=Trini Triggs - The wreckin' crew
TTITLE13=Lorrie Morgan - To get to ou
TTITLE14=Randy Travis - Where can I surrender
TTITLE15=Brandon Sandefur - Now you're tonkin'
TTITLE16=Joanie Keller - Three little teardrops
EXTD=
EXTT0=
EXTT1=
EXTT2=
EXTT3=
EXTT4=
EXTT5=
EXTT6=
EXTT7=
EXTT8=
EXTT9=
EXTT10=
EXTT11=
EXTT12=
EXTT13=
EXTT14=
EXTT15=
EXTT16=
PLAYORDER=
